<?xml version="1.0" encoding="UTF-8" standalone="no"?>
<svg
   xmlns:dc="http://purl.org/dc/elements/1.1/"
   xmlns:cc="http://creativecommons.org/ns#"
   xmlns:rdf="http://www.w3.org/1999/02/22-rdf-syntax-ns#"
   xmlns:svg="http://www.w3.org/2000/svg"
   xmlns="http://www.w3.org/2000/svg"
   xmlns:sodipodi="http://sodipodi.sourceforge.net/DTD/sodipodi-0.dtd"
   xmlns:inkscape="http://www.inkscape.org/namespaces/inkscape"
   width="115mm"
   height="115mm"
   viewBox="0 0 115 115"
   version="1.1"
   id="svg917"
   inkscape:version="1.0.1 (3bc2e813f5, 2020-09-07)"
   sodipodi:docname="titleLogo.svg">
  <defs
     id="defs911" />
  <sodipodi:namedview
     id="base"
     pagecolor="#ffffff"
     bordercolor="#666666"
     borderopacity="1.0"
     inkscape:pageopacity="0.0"
     inkscape:pageshadow="2"
     inkscape:zoom="7.9195959"
     inkscape:cx="104.05383"
     inkscape:cy="131.54326"
     inkscape:document-units="mm"
     inkscape:current-layer="layer1"
     inkscape:document-rotation="0"
     showgrid="true"
     units="mm"
     objecttolerance="10000"
     guidetolerance="10000"
     inkscape:pagecheckerboard="true"
     inkscape:window-width="1920"
     inkscape:window-height="1002"
     inkscape:window-x="-8"
     inkscape:window-y="-8"
     inkscape:window-maximized="1"
     inkscape:snap-nodes="false">
    <inkscape:grid
       type="xygrid"
       id="grid919"
       empspacing="8"
       dotted="false" />
  </sodipodi:namedview>
  <metadata
     id="metadata914">
    <rdf:RDF>
      <cc:Work
         rdf:about="">
        <dc:format>image/svg+xml</dc:format>
        <dc:type
           rdf:resource="http://purl.org/dc/dcmitype/StillImage" />
        <dc:title></dc:title>
      </cc:Work>
    </rdf:RDF>
  </metadata>
  <g
     inkscape:label="Layer 1"
     inkscape:groupmode="layer"
     id="layer1">
    <path
       style="fill:none;fill-opacity:0.690265;stroke:#d85151;stroke-width:4.23333;stroke-linecap:round;stroke-linejoin:round;stroke-miterlimit:4;stroke-dasharray:none;stroke-opacity:1;paint-order:markers fill stroke"
       id="path833"
       sodipodi:type="arc"
       sodipodi:cx="57.149857"
       sodipodi:cy="57.146679"
       sodipodi:rx="55.033333"
       sodipodi:ry="55.033333"
       sodipodi:start="1.1240674"
       sodipodi:end="5.6851528"
       sodipodi:open="true"
       sodipodi:arc-type="arc"
       d="M 80.925235,106.77932 A 55.033333,55.033333 0 0 1 8.7789172,83.393964 55.033333,55.033333 0 0 1 28.497415,10.160454 55.033333,55.033333 0 0 1 102.63188,26.161947" />
    <path
       d="m 69.849999,15.962312 c -4.702582,-1e-6 -8.514778,3.812195 -8.514777,8.514777 0,4.306894 7.128649,11.930586 8.336561,13.197903 0.09386,0.1 0.252655,0.1 0.346516,0 1.207911,-1.257416 8.33656,-8.910812 8.33656,-13.197903 4e-6,-4.698718 -3.806161,-8.509313 -8.504875,-8.514777 z m 0,11.554354 c -2.700838,-0.02639 -4.027932,-3.298714 -2.109023,-5.199054 1.918909,-1.900341 5.178172,-0.54149 5.178301,2.159477 8.1e-5,1.69038 -1.378979,3.056094 -3.069278,3.039577 z"
       id="path854"
       style="fill:#d85151;fill-opacity:1;stroke-width:0.990089"
       sodipodi:nodetypes="csccsccssss" />
    <path
       d="m 21.166666,64.645646 a 8.5147759,8.5147759 0 0 0 -8.514777,8.514777 c 0,4.306894 7.128649,11.930586 8.336561,13.197903 a 0.23762164,0.23762164 0 0 0 0.346516,0 c 1.207911,-1.257416 8.33656,-8.910812 8.33656,-13.197903 a 8.5147759,8.5147759 0 0 0 -8.504875,-8.514777 z m 0,11.554354 A 3.039577,3.039577 0 1 1 24.235944,73.160423 3.039577,3.039577 0 0 1 21.166666,76.2 Z"
       id="path854-9"
       style="fill:#d85151;fill-opacity:1;stroke-width:0.990089" />
    <path
       d="m 42.333333,4.2333333 a 7.7991997,7.7991997 0 0 0 -7.7992,7.7992017 c 0,3.944944 6.529561,10.927946 7.635961,12.088759 a 0.21765208,0.21765208 0 0 0 0.317395,0 C 43.593888,22.96955 50.123448,15.95934 50.123448,12.032535 A 7.7991997,7.7991997 0 0 0 42.333319,4.2333333 Z m 0,10.5833327 a 2.7841329,2.7841329 0 1 1 2.811338,-2.784131 2.7841329,2.7841329 0 0 1 -2.811338,2.784131 z"
       id="path854-7"
       style="fill:#d85151;fill-opacity:1;stroke-width:0.906883" />
    <path
       d="m 48.683333,49.828979 a 8.5147759,8.5147759 0 0 0 -8.514777,8.514778 c 0,4.306893 7.128649,11.930585 8.336561,13.197902 a 0.23762164,0.23762164 0 0 0 0.346516,0 c 1.207911,-1.257416 8.33656,-8.910812 8.33656,-13.197902 a 8.5147759,8.5147759 0 0 0 -8.504875,-8.514778 z m 0,11.554354 a 3.039577,3.039577 0 1 1 3.069278,-3.039576 3.039577,3.039577 0 0 1 -3.069278,3.039576 z"
       id="path854-3"
       style="fill:#d85151;fill-opacity:1;stroke-width:0.990089" />
    <path
       style="fill:none;stroke:#d85151;stroke-width:2.11667;stroke-linecap:butt;stroke-linejoin:miter;stroke-miterlimit:4;stroke-dasharray:none;stroke-opacity:1"
       d="m 48.683333,67.733333 c 0,0 0.07559,15.043451 -27.516667,16.933332"
       id="path901"
       sodipodi:nodetypes="cc" />
    <path
       style="fill:none;stroke:#d85151;stroke-width:2.11667;stroke-linecap:butt;stroke-linejoin:miter;stroke-miterlimit:4;stroke-dasharray:none;stroke-opacity:1"
       d="m 21.166666,84.666665 c -10.583333,0.377976 -6.35,8.466668 -6.35,8.466668"
       id="path905"
       sodipodi:nodetypes="cc" />
    <path
       style="fill:none;stroke:#d85151;stroke-width:2.11667;stroke-linecap:butt;stroke-linejoin:round;stroke-miterlimit:4;stroke-dasharray:none;stroke-opacity:1"
       d="M 48.683332,69.056249 C 50.951189,68.111309 -7.9489648,32.238322 42.132881,23.166894"
       id="path907"
       sodipodi:nodetypes="cc" />
    <path
       style="fill:none;stroke:#d85151;stroke-width:2.11667;stroke-linecap:butt;stroke-linejoin:miter;stroke-miterlimit:4;stroke-dasharray:none;stroke-opacity:1"
       d="M 48.683332,69.849999 C 82.701189,71.097319 69.849999,33.866666 69.849999,33.866666"
       id="path909"
       sodipodi:nodetypes="cc" />
    <path
       style="fill:none;stroke:#d85151;stroke-width:2.11667;stroke-linecap:round;stroke-linejoin:miter;stroke-miterlimit:4;stroke-dasharray:none;stroke-opacity:1"
       d="M 69.849998,35.983332 C 53.947461,10.592727 90.63725,14.683031 90.63725,14.683031"
       id="path915"
       sodipodi:nodetypes="cc" />
  </g>
</svg>
